# xmcd
#
# Track frame offsets:
# 150
# 16400
# 30587
# 48805
# 63887
# 76462
# 88487
# 100852
# 116225
# 126885
# 143675
# 153487
# 166050
# 185362
#
# Disc length: 2664 seconds
#
#
# Revision: 0
# Processed by: cddbd v1.5.1PL2 Copyright (c) Steve Scherf et al.
# Submitted via: FreeRIP 2.60 
#
DISCID=b10a660e
DTITLE=Anne Murray - Anne Murray Greatest Hits
DYEAR=1900
DGENRE=Country
TTITLE0=You Needed Me
TTITLE1=Another Sleepless Night
TTITLE2=Broken Hearted Me
TTITLE3=Could I Have This Dance
TTITLE4=I Just Fall In Love Again
TTITLE5=Just Another Woman In Love
TTITLE6=Love Song
TTITLE7=Shadows In The Moonlight
TTITLE8=Daydream Believer
TTITLE9=I Don't Know How To Love Him
TTITLE10=Snowbird
TTITLE11=Things
TTITLE12=Tell Me Why
TTITLE13=Girls With Guitars
EXTD=PT Records, Malaysia: PT 8870
EXTT0=
EXTT1=
EXTT2=
EXTT3=
EXTT4=
EXTT5=
EXTT6=
EXTT7=
EXTT8=
EXTT9=
EXTT10=
EXTT11=
EXTT12=
EXTT13=
PLAYORDER=
